<svg width="32" height="32" viewBox="0 0 32 32" fill="none" xmlns="http://www.w3.org/2000/svg">
<circle r="16" transform="matrix(-1 0 0 1 16 16)" fill="#BAD1FF" fill-opacity="0.1"/>
<g clip-path="url(#clip0)">
<path d="M10.3925 15.6412L18.8837 7.14994C19.0836 6.95002 19.4043 6.95002 19.6042 7.14994C19.8041 7.34987 19.8041 7.67051 19.6042 7.87044L11.4751 15.9995L19.6042 24.1286C19.8041 24.3285 19.8041 24.6492 19.6042 24.8491C19.5061 24.9472 19.3741 25 19.2458 25C19.1176 25 18.9856 24.951 18.8875 24.8491L10.3963 16.3579C10.1963 16.1617 10.1963 15.8373 10.3925 15.6412Z" fill="white" fill-opacity="0.2"/>
</g>
<defs>
<clipPath id="clip0">
<rect width="16" height="18" fill="white" transform="matrix(-1 0 0 1 24 7)"/>
</clipPath>
</defs>
</svg>
